<svg xmlns:xlink="http://www.w3.org/1999/xlink" xmlns="http://www.w3.org/2000/svg" class="css-ze2te4 css-qd6ojx" viewBox="0 0 65.16392605667669 64.8" width="110"  height="109" ><g transform="translate(-12.897364908368367, -13.584137038640403) scale(0.917847144520419)" class="css-roji9a" fill="#0DE2EA"><path xmlns="http://www.w3.org/2000/svg" fill-rule="evenodd" clip-rule="evenodd" fill="#0DE2EA" d="M57.8,35.5c0.2-0.4-1.6-1.3-1.7-1C55.9,34.9,57.6,35.9,57.8,35.5z   M58.9,34.4c0.3-0.3-0.9-1.8-1.2-1.6C57.3,33,58.6,34.6,58.9,34.4z M83.8,56.8l-11.4-6.6l11.5-6.5c1.1-0.6,1.5-2,0.8-3.2l-9-15.7  c-0.6-1.1-2.1-1.5-3.2-0.8l-11.4,6.5l0.1-13.2c0-1.3-1-2.3-2.3-2.4l-18.2-0.1c-1.3,0-2.4,1.1-2.4,2.4l-0.1,13.1l-11.4-6.6  c-1.1-0.7-2.6-0.3-3.2,0.8L14.5,40c-0.7,1.1-0.3,2.6,0.8,3.2l11.4,6.7l-11.5,6.5c-1.1,0.6-1.5,2.1-0.8,3.2l9,15.7  c0.6,1.2,2.1,1.5,3.2,0.9L38,69.7l-0.1,13.2c0,1.3,1,2.4,2.3,2.4l18.2,0.1c1.3,0,2.4-1,2.4-2.3l0.1-13.2l11.4,6.6  c1.1,0.7,2.6,0.3,3.2-0.8L84.6,60C85.3,58.9,84.9,57.5,83.8,56.8z M59,35.5c-0.7,0.8-2.5,0.5-4.1-0.8c-1.6-1.3-2.4-3-1.7-3.8  c0.7-0.8,2.5-0.5,4.1,0.8C58.9,32.9,59.7,34.6,59,35.5z M48.8,80l-0.1-9.9c0.4,0.2,0.9,0.4,1.3,0.8c0.1,0.2-0.2,7.6-0.2,9.2L48.8,80  z M50.3,47.5l0.3,0.1l-0.4,15.2c-0.1,0-1.2-0.6-1.6-0.8c0-0.1-0.2-12.8-0.2-15.4C49,47,49.7,47.2,50.3,47.5z M54.4,69.2  c1.1,2.7,0.2,5.9-2.4,7.3l0-1.9c0-0.2,0.4-0.6,0.5-0.8c0.1-0.3,0.2-0.6,0.2-0.9c0-0.4,0-0.7,0-1c-0.4-3-3.4-3.8-5.8-5  c-1.3-0.6-2.6-1.3-3.5-2.4c-0.9-1.1-1.4-2.5-1.5-3.9c-0.2-3,1.6-5.4,4.3-6.7l0,3l0,0.5c0,0.1-0.7,0.6-0.7,0.8  c-0.6,0.9-0.7,2.1-0.5,3c0.4,2.1,2.8,2.9,4.5,3.8C51.5,66,53.6,67.2,54.4,69.2z M48.3,38.1l-0.1-11c-1.3-0.6-2.3-1.9-2.2-3.4  c0-2,1.7-3.7,3.7-3.7c2.1,0,3.8,1.7,3.8,3.8c0,1.5-1,2.8-2.3,3.4l-0.3,12.2C49.9,39,49,38.7,48.3,38.1z M56,52  c-0.8,1.3-2,2.2-3.4,2.8l0-2c0-0.5-0.2-1.6,0.2-1.9c0.9-1,1.2-2.8,0.3-3.9c-0.9-1.3-2.9-1.9-4.3-2.4c-2.9-1.2-5.8-2.7-6.6-6  c-0.7-3.2,0.7-6.6,3.7-8l0.1,3.6c0,0.2-0.2,0.4-0.4,0.6c-0.1,0.3-0.3,0.6-0.3,0.9c-0.1,0.5-0.1,0.9-0.1,1.4c0.1,1.5,1,2.5,2.2,3.3  c2.3,1.4,5.1,1.8,7.3,3.6C57.1,45.8,57.6,49.3,56,52z M47,76.7l0,1c-0.5,0-1.1-0.1-1.7-0.1c-0.4,0-0.3-0.1-0.3-0.6  c0-0.3,0.5-0.2,0.7-0.2C46.2,76.8,46.6,76.8,47,76.7z"></path></g></svg>